<svg id="visual" viewBox="0 0 900 900" width="900" height="900" xmlns="http://www.w3.org/2000/svg" xmlns:xlink="http://www.w3.org/1999/xlink" version="1.1"><g transform="translate(415.42169086089655 501.5836216722777)"><path d="M177.4 -296.7C224.7 -245.7 254.3 -187.6 274.9 -129.4C295.4 -71.1 307.1 -12.7 301.7 45.3C296.4 103.2 274 160.7 232.4 192C190.7 223.4 129.7 228.8 71.2 248.7C12.8 268.7 -43.2 303.2 -101.5 304.8C-159.8 306.4 -220.5 275 -231.8 222.7C-243.1 170.4 -205.1 97.2 -184.6 44.6C-164.1 -8.1 -161.2 -40.2 -173.9 -107.3C-186.6 -174.4 -215 -276.5 -188.6 -337.1C-162.2 -397.7 -81.1 -416.9 -8 -404.4C65.1 -391.9 130.1 -347.8 177.4 -296.7" fill="#BB004B"></path></g></svg>